<svg xmlns="http://www.w3.org/2000/svg" viewBox="0 0 3845.760 1035.990" width="3846" height="1036">
<!-- Item 29 · CTRC em Alfa Slab One · contorno real do glifo, em curvas (D-03)
     caixa alta normalizada para 1000 unidades · kerning nao aplicado · licenca SIL OFL 1.1 -->
<g fill="#000" transform="translate(-17.990 17.990)">
  <path d="M524.422 1017.995Q281.491 1017.995 149.743 894.602Q17.995 771.208 17.995 500Q17.995 -17.995 521.851 -17.995Q643.959 -17.995 748.715 11.568Q853.47 41.131 904.884 77.121L904.884 398.458L596.401 398.458L596.401 305.913Q596.401 257.069 574.55 233.933Q552.699 210.797 508.997 210.797Q465.296 210.797 443.445 233.933Q421.594 257.069 421.594 305.913L421.594 694.087Q421.594 742.931 443.445 766.067Q465.296 789.203 508.997 789.203Q552.699 789.203 574.55 766.067Q596.401 742.931 596.401 694.087L596.401 589.974L904.884 589.974L904.884 922.879Q852.185 958.869 748.715 988.432Q645.244 1017.995 524.422 1017.995Z"/>
  <path d="M1912.596 311.054L1691.517 311.054L1691.517 210.797L1609.254 210.797L1609.254 789.203L1699.229 789.203L1699.229 1000L1159.383 1000L1159.383 789.203L1249.357 789.203L1249.357 210.797L1167.095 210.797L1167.095 311.054L946.015 311.054L946.015 0L1912.596 0Z"/>
  <path d="M1956.298 789.203L2020.566 789.203L2020.566 210.797L1956.298 210.797L1956.298 0L2546.272 0Q2712.082 0 2799.486 68.123Q2886.889 136.247 2886.889 289.203Q2886.889 375.321 2852.185 438.303Q2817.481 501.285 2753.213 525.707L2754.499 538.56Q2877.892 557.841 2877.892 690.231L2877.892 789.203L2938.303 789.203L2938.303 1000L2530.848 1000L2530.848 697.943Q2530.848 647.815 2516.067 622.108Q2501.285 596.401 2469.794 587.404Q2438.303 578.406 2380.463 578.406L2380.463 789.203L2465.296 789.203L2465.296 1000L1956.298 1000ZM2449.871 421.594Q2487.147 421.594 2505.784 401.671Q2524.422 381.748 2524.422 339.332L2524.422 293.059Q2524.422 250.643 2505.784 230.72Q2487.147 210.797 2449.871 210.797L2380.463 210.797L2380.463 421.594Z"/>
  <path d="M3483.29 1017.995Q3240.36 1017.995 3108.612 894.602Q2976.864 771.208 2976.864 500Q2976.864 -17.995 3480.72 -17.995Q3602.828 -17.995 3707.584 11.568Q3812.339 41.131 3863.753 77.121L3863.753 398.458L3555.27 398.458L3555.27 305.913Q3555.27 257.069 3533.419 233.933Q3511.568 210.797 3467.866 210.797Q3424.165 210.797 3402.314 233.933Q3380.463 257.069 3380.463 305.913L3380.463 694.087Q3380.463 742.931 3402.314 766.067Q3424.165 789.203 3467.866 789.203Q3511.568 789.203 3533.419 766.067Q3555.27 742.931 3555.27 694.087L3555.27 589.974L3863.753 589.974L3863.753 922.879Q3811.054 958.869 3707.584 988.432Q3604.113 1017.995 3483.29 1017.995Z"/>
</g>
</svg>
