<?xml version="1.0" standalone="no"?>
<svg version="1.0" xmlns="http://www.w3.org/2000/svg"
 width="80.000000pt" height="45.000000pt" viewBox="0 0 80.000000 45.000000"
 preserveAspectRatio="xMidYMid meet">
<g transform="translate(0.000000,45.000000) scale(0.100000,-0.100000)"
fill="#000000" stroke="none">
<path d="M137 443 c-3 -5 -33 -100 -67 -213 -34 -113 -65 -209 -67 -213 -3 -4
25 -7 62 -5 l67 3 30 95 c16 52 33 99 37 103 5 4 49 -40 100 -98 l92 -105 65
0 c49 0 63 3 58 13 -4 6 -44 56 -88 109 l-81 98 -74 0 c-58 0 -72 3 -68 14 3
8 11 32 18 55 l12 41 106 0 106 1 38 48 c20 27 37 52 37 55 0 9 -378 7 -383
-1z"/>
<path d="M560 343 c-49 -60 -88 -114 -85 -120 2 -7 42 -58 87 -113 l83 -99 74
-1 73 0 -46 55 c-25 30 -66 79 -91 109 l-46 54 54 64 c29 34 70 84 91 111 l38
47 -70 0 -71 0 -91 -107z"/>
</g>
</svg>
